{
  "extensions": {
    "K3D_nodes": {
      "uri": "sample_output.k3d",
      "schema": "../spec/k3d_node_schema.json",
      "primitiveIdsProperty": "extras.k3dIds"
    }
  },
  "accessors": [
    {
      "bufferView": 0,
      "byteOffset": 0,
      "componentType": 5126,
      "normalized": false,
      "count": 3,
      "type": "VEC3",
      "max": [
        0.8164966106414795,
        0.7071067690849304,
        3.700743525707937e-17
      ],
      "min": [
        -0.40824830532073975,
        -0.7071067690849304,
        3.700743525707937e-17
      ]
    }
  ],
  "asset": {
    "generator": "pygltflib@v1.16.5",
    "version": "2.0"
  },
  "bufferViews": [
    {
      "buffer": 0,
      "byteOffset": 0,
      "byteLength": 36,
      "target": 34962
    }
  ],
  "buffers": [
    {
      "uri": "data:application/octet-stream;base64,",
      "byteLength": 36
    }
  ],
  "extensionsUsed": [
    "K3D_nodes"
  ],
  "meshes": [
    {
      "primitives": [
        {
          "extras": {
            "k3dIds": [
              "0",
              "1",
              "2"
            ]
          },
          "attributes": {
            "POSITION": 0
          },
          "mode": 0
        }
      ]
    }
  ],
  "nodes": [
    {
      "mesh": 0
    }
  ],
  "scene": 0,
  "scenes": [
    {
      "nodes": [
        0
      ]
    }
  ]
}